<svg width="23" height="20" viewBox="0 0 23 20" fill="none" xmlns="http://www.w3.org/2000/svg">
<path d="M9.68842 1.95728L1.2665 16.017C1.09286 16.3177 1.00098 16.6587 1.00001 17.0059C0.999036 17.3531 1.089 17.6946 1.26096 17.9963C1.43291 18.2979 1.68086 18.5493 1.98013 18.7254C2.27941 18.9015 2.61957 18.9962 2.96679 19H19.8106C20.1579 18.9962 20.498 18.9015 20.7973 18.7254C21.0966 18.5493 21.3445 18.2979 21.5165 17.9963C21.6884 17.6946 21.7784 17.3531 21.7774 17.0059C21.7765 16.6587 21.6846 16.3177 21.5109 16.017L13.089 1.95728C12.9118 1.66505 12.6622 1.42345 12.3643 1.25577C12.0665 1.08809 11.7305 1 11.3887 1C11.0469 1 10.7109 1.08809 10.4131 1.25577C10.1153 1.42345 9.86568 1.66505 9.68842 1.95728Z" stroke="#F27C10" stroke-width="2" stroke-linecap="round" stroke-linejoin="round"/>
<path d="M11.3887 7.06812V11.0454" stroke="#F27C10" stroke-width="2" stroke-linecap="round" stroke-linejoin="round"/>
<path d="M11.3887 15.0227H11.3987" stroke="#F27C10" stroke-width="2" stroke-linecap="round" stroke-linejoin="round"/>
</svg>